<?xml version="1.0" standalone="no"?>
<!DOCTYPE svg PUBLIC "-//W3C//DTD SVG 20010904//EN"
 "http://www.w3.org/TR/2001/REC-SVG-20010904/DTD/svg10.dtd">
<svg version="1.0" xmlns="http://www.w3.org/2000/svg"
 width="1280.000000pt" height="296.000000pt" viewBox="0 0 1280.000000 296.000000"
 preserveAspectRatio="xMidYMid meet">
<metadata>
Created by potrace 1.16, written by Peter Selinger 2001-2019
</metadata>
<g transform="translate(0.000000,296.000000) scale(0.100000,-0.100000)"
fill="#000000" stroke="none">
<path d="M5731 2084 c-178 -48 -320 -194 -376 -387 -38 -133 -36 -348 6 -477
60 -188 207 -328 388 -370 76 -18 224 -16 300 4 188 48 331 198 388 407 13 47
18 102 18 209 0 227 -44 351 -169 476 -115 115 -217 154 -397 153 -57 0 -128
-7 -158 -15z m306 -200 c130 -63 197 -204 197 -414 0 -213 -73 -362 -207 -421
-73 -32 -191 -32 -264 0 -59 26 -130 96 -163 161 -44 87 -63 267 -41 386 32
166 126 280 258 314 59 14 161 3 220 -26z"/>
<path d="M7066 2084 c-194 -47 -342 -201 -397 -413 -28 -107 -28 -296 0 -404
65 -249 235 -398 485 -426 150 -17 300 12 429 82 l57 32 0 124 c0 116 -1 123
-17 110 -10 -8 -38 -30 -63 -50 -101 -81 -185 -111 -310 -111 -144 0 -240 46
-308 146 -53 79 -67 142 -67 296 0 154 14 217 67 296 68 101 165 146 311 146
131 -1 214 -34 345 -140 l42 -34 0 124 0 124 -69 37 c-101 54 -201 77 -335 76
-61 0 -137 -7 -170 -15z"/>
<path d="M10155 2094 c-11 -3 -62 -14 -112 -25 l-93 -20 0 -104 0 -103 74 24
c160 50 328 58 397 18 105 -61 104 -199 -1 -251 -39 -20 -59 -23 -172 -23
l-128 0 0 -94 0 -93 124 -5 c93 -4 134 -11 167 -26 112 -50 149 -172 84 -273
-36 -56 -100 -82 -213 -87 -134 -6 -212 13 -354 86 -5 2 -8 -46 -8 -106 l0
-110 63 -21 c101 -32 176 -44 282 -43 224 1 375 76 444 222 23 48 26 68 26
160 0 125 -16 167 -96 250 l-50 52 42 45 c59 64 80 118 80 208 0 53 -6 88 -21
123 -38 87 -140 166 -250 191 -43 10 -243 13 -285 5z"/>
<path d="M11316 2089 c-68 -16 -155 -70 -214 -133 -113 -121 -162 -271 -162
-496 0 -435 185 -660 509 -619 213 26 351 193 351 425 0 224 -128 381 -337
415 -106 17 -230 -12 -297 -70 -18 -15 -19 -15 -12 24 10 61 61 158 107 203
81 82 229 95 379 35 l75 -30 3 100 c1 55 -1 104 -5 108 -4 4 -44 17 -87 28
-85 22 -236 27 -310 10z m147 -603 c44 -18 94 -77 108 -128 17 -63 8 -185 -17
-232 -32 -62 -84 -99 -148 -104 -93 -8 -159 26 -198 101 -18 35 -22 59 -23
137 0 125 27 181 110 224 37 19 125 21 168 2z"/>
<path d="M12265 2086 c-85 -27 -151 -79 -201 -158 -89 -141 -126 -407 -89
-649 43 -290 182 -440 410 -441 185 -2 306 81 382 262 l28 65 3 284 3 284 -26
76 c-69 198 -193 292 -383 290 -48 0 -105 -6 -127 -13z m202 -187 c94 -45 137
-181 137 -429 0 -182 -18 -280 -67 -360 -42 -69 -84 -93 -155 -87 -60 4 -94
25 -134 83 -44 63 -60 141 -65 324 -7 228 17 351 84 430 51 61 125 76 200 39z"/>
<path d="M20 1470 l0 -612 278 4 c242 4 287 7 353 26 212 58 332 174 386 374
13 46 18 103 18 213 0 130 -3 160 -23 225 -60 190 -177 300 -382 355 -53 15
-119 19 -347 22 l-283 5 0 -612z m587 396 c107 -34 186 -125 212 -242 8 -32
13 -106 13 -164 -1 -168 -49 -286 -140 -344 -77 -48 -127 -59 -294 -64 l-158
-4 0 422 0 422 158 -4 c108 -4 173 -10 209 -22z"/>
<path d="M1310 1470 l0 -610 110 0 110 0 0 610 0 610 -110 0 -110 0 0 -610z"/>
<path d="M2251 2058 c-158 -411 -451 -1183 -451 -1190 0 -5 51 -7 113 -6 l112
3 51 145 52 145 243 0 243 0 52 -145 52 -145 112 -3 112 -3 -6 23 c-3 13 -106
286 -229 608 l-222 585 -113 3 c-109 3 -113 2 -121 -20z m203 -470 c43 -117
81 -219 83 -225 4 -10 -33 -13 -167 -13 -94 0 -170 4 -168 9 2 4 39 106 83
225 44 119 82 216 85 216 3 0 41 -96 84 -212z"/>
<path d="M3110 1470 l0 -610 395 0 395 0 0 95 0 95 -285 0 -285 0 0 515 0 515
-110 0 -110 0 0 -610z"/>
<path d="M4180 1470 l0 -610 110 0 110 0 0 245 0 245 93 0 c116 0 163 -13 204
-57 18 -18 78 -124 133 -233 l101 -200 114 0 c63 0 115 3 115 6 0 3 -52 108
-115 232 -82 163 -128 243 -163 282 l-49 54 31 16 c82 41 132 162 124 300 -8
131 -57 219 -152 275 -77 45 -150 55 -413 55 l-243 0 0 -610z m516 394 c54
-40 68 -69 68 -141 1 -80 -21 -126 -74 -158 -29 -17 -56 -21 -162 -24 l-128
-3 0 177 0 177 134 -4 c117 -3 138 -6 162 -24z"/>
<path d="M7940 1470 l0 -610 110 0 110 0 0 257 0 258 258 -258 257 -257 145 0
145 0 -325 325 c-198 198 -321 328 -315 333 19 17 540 505 570 533 l30 29
-145 0 -145 0 -235 -222 -235 -223 -3 223 -2 222 -110 0 -110 0 0 -610z"/>
</g>
</svg>
